# xmcd CD database file
#
# Track frame offsets:
#	150
#	19961
#	36604
#	58650
#	72920
#	83034
#	99782
#	116659
#
# Disc length: 1739 seconds
#
# Revision: 0
# Processed by: cddbd v1.5.2PL0 Copyright (c) Steve Scherf et al.
# Submitted via: CDex 1.75
#
DISCID=6706c908
DTITLE=The New Orleans Swamp Donkeys Traditional Jass Band  - Donkey Business
DYEAR=2014
DGENRE=Jazz
TTITLE0=I Can't Stop Logging On Facebook
TTITLE1=If You Are a Swamp Donkey
TTITLE2=A Long Time Ago
TTITLE3=Kick in the Head
TTITLE4=The Butcher
TTITLE5=Loose Booty Judy
TTITLE6=If You Ain't Payin' We Ain't Playin', Baby
TTITLE7=Dreamer
EXTD=YEAR: 2014
EXTT0=
EXTT1=
EXTT2=
EXTT3=
EXTT4=
EXTT5=
EXTT6=
EXTT7=
PLAYORDER=
